<svg xmlns="http://www.w3.org/2000/svg" viewBox="0 0 1200 750" preserveAspectRatio="xMidYMid slice" role="img" aria-label="Agora Data Driven">
  <defs>
    <linearGradient id="bg" x1="0" y1="0" x2="1" y2="1">
      <stop offset="0" stop-color="#3f8b3b"/>
      <stop offset="1" stop-color="#6cb968"/>
    </linearGradient>
    <radialGradient id="glow" cx="0.82" cy="0.18" r="0.9">
      <stop offset="0" stop-color="#ffffff" stop-opacity="0.22"/>
      <stop offset="1" stop-color="#ffffff" stop-opacity="0"/>
    </radialGradient>
    <pattern id="dots" width="38" height="38" patternUnits="userSpaceOnUse">
      <circle cx="3" cy="3" r="2" fill="#ffffff" fill-opacity="0.07"/>
    </pattern>
  </defs>
  <rect width="1200" height="750" fill="url(#bg)"/>
  <rect width="1200" height="750" fill="url(#dots)"/>
  <rect width="1200" height="750" fill="url(#glow)"/>
  <g fill="#ffffff" fill-opacity="0.10">
    <rect x="93" y="520" width="14" height="160" rx="7"/>
    <rect x="293" y="430" width="14" height="250" rx="7"/>
    <rect x="493" y="470" width="14" height="210" rx="7"/>
    <rect x="693" y="320" width="14" height="360" rx="7"/>
    <rect x="873" y="380" width="14" height="300" rx="7"/>
    <rect x="1093" y="230" width="14" height="450" rx="7"/>
  </g>
  <polyline points="100,520 300,430 500,470 700,320 880,380 1100,230" fill="none" stroke="#ffffff" stroke-opacity="0.6" stroke-width="6" stroke-linecap="round" stroke-linejoin="round"/>
  <g fill="#ffffff" fill-opacity="0.95">
    <circle cx="100" cy="520" r="9"/>
    <circle cx="300" cy="430" r="9"/>
    <circle cx="500" cy="470" r="9"/>
    <circle cx="700" cy="320" r="9"/>
    <circle cx="880" cy="380" r="9"/>
    <circle cx="1100" cy="230" r="9"/>
  </g>
  <g transform="translate(96,96)">
    <rect x="0" y="0" width="58" height="58" rx="16" fill="#ffffff" fill-opacity="0.95"/>
    <path d="M14 40 L26 20 L34 32 L44 16" fill="none" stroke="#2c5a2a" stroke-width="5" stroke-linecap="round" stroke-linejoin="round"/>
  </g>
</svg>
