<svg xmlns="http://www.w3.org/2000/svg" viewBox="0 0 1200 750" preserveAspectRatio="xMidYMid slice" role="img" aria-label="Agora Data Driven">
  <defs>
    <linearGradient id="bg" x1="0" y1="0" x2="1" y2="1">
      <stop offset="0" stop-color="#2c5a2a"/>
      <stop offset="1" stop-color="#4fa84a"/>
    </linearGradient>
    <radialGradient id="glow" cx="0.18" cy="0.12" r="0.9">
      <stop offset="0" stop-color="#ffffff" stop-opacity="0.20"/>
      <stop offset="1" stop-color="#ffffff" stop-opacity="0"/>
    </radialGradient>
    <pattern id="dots" width="38" height="38" patternUnits="userSpaceOnUse">
      <circle cx="3" cy="3" r="2" fill="#ffffff" fill-opacity="0.06"/>
    </pattern>
  </defs>
  <rect width="1200" height="750" fill="url(#bg)"/>
  <rect width="1200" height="750" fill="url(#dots)"/>
  <rect width="1200" height="750" fill="url(#glow)"/>
  <g fill="#ffffff" fill-opacity="0.10">
    <rect x="93" y="580" width="14" height="100" rx="7"/>
    <rect x="293" y="500" width="14" height="180" rx="7"/>
    <rect x="493" y="540" width="14" height="140" rx="7"/>
    <rect x="693" y="380" width="14" height="300" rx="7"/>
    <rect x="873" y="430" width="14" height="250" rx="7"/>
    <rect x="1093" y="260" width="14" height="420" rx="7"/>
  </g>
  <polyline points="100,580 300,500 500,540 700,380 880,430 1100,260" fill="none" stroke="#ffffff" stroke-opacity="0.55" stroke-width="6" stroke-linecap="round" stroke-linejoin="round"/>
  <g fill="#ffffff" fill-opacity="0.92">
    <circle cx="100" cy="580" r="9"/>
    <circle cx="300" cy="500" r="9"/>
    <circle cx="500" cy="540" r="9"/>
    <circle cx="700" cy="380" r="9"/>
    <circle cx="880" cy="430" r="9"/>
    <circle cx="1100" cy="260" r="9"/>
  </g>
  <g transform="translate(96,96)">
    <rect x="0" y="0" width="58" height="58" rx="16" fill="#ffffff" fill-opacity="0.92"/>
    <path d="M14 40 L26 20 L34 32 L44 16" fill="none" stroke="#346f31" stroke-width="5" stroke-linecap="round" stroke-linejoin="round"/>
  </g>
</svg>
