<svg xmlns="http://www.w3.org/2000/svg" viewBox="0 0 1200 750" preserveAspectRatio="xMidYMid slice" role="img" aria-label="Agora Data Driven">
  <defs>
    <linearGradient id="bg" x1="0" y1="0" x2="1" y2="1">
      <stop offset="0" stop-color="#0c2316"/>
      <stop offset="1" stop-color="#346f31"/>
    </linearGradient>
    <radialGradient id="glow" cx="0.5" cy="0.0" r="0.95">
      <stop offset="0" stop-color="#4fa84a" stop-opacity="0.35"/>
      <stop offset="1" stop-color="#4fa84a" stop-opacity="0"/>
    </radialGradient>
    <pattern id="dots" width="38" height="38" patternUnits="userSpaceOnUse">
      <circle cx="3" cy="3" r="2" fill="#ffffff" fill-opacity="0.06"/>
    </pattern>
  </defs>
  <rect width="1200" height="750" fill="url(#bg)"/>
  <rect width="1200" height="750" fill="url(#dots)"/>
  <rect width="1200" height="750" fill="url(#glow)"/>
  <g fill="#ffffff" fill-opacity="0.08">
    <rect x="93" y="560" width="14" height="120" rx="7"/>
    <rect x="293" y="470" width="14" height="210" rx="7"/>
    <rect x="493" y="520" width="14" height="160" rx="7"/>
    <rect x="693" y="360" width="14" height="320" rx="7"/>
    <rect x="873" y="410" width="14" height="270" rx="7"/>
    <rect x="1093" y="240" width="14" height="440" rx="7"/>
  </g>
  <polyline points="100,560 300,470 500,520 700,360 880,410 1100,240" fill="none" stroke="#94cd91" stroke-opacity="0.85" stroke-width="6" stroke-linecap="round" stroke-linejoin="round"/>
  <g fill="#ffffff" fill-opacity="0.95">
    <circle cx="100" cy="560" r="9"/>
    <circle cx="300" cy="470" r="9"/>
    <circle cx="500" cy="520" r="9"/>
    <circle cx="700" cy="360" r="9"/>
    <circle cx="880" cy="410" r="9"/>
    <circle cx="1100" cy="240" r="9"/>
  </g>
  <g transform="translate(96,96)">
    <rect x="0" y="0" width="58" height="58" rx="16" fill="#ffffff" fill-opacity="0.95"/>
    <path d="M14 40 L26 20 L34 32 L44 16" fill="none" stroke="#0c2316" stroke-width="5" stroke-linecap="round" stroke-linejoin="round"/>
  </g>
</svg>
